<?xml version="1.0" encoding="UTF-8"?>
<svg version="1.1" xmlns="http://www.w3.org/2000/svg" width="653" height="298">
<path d="M0 0 C215.49 0 430.98 0 653 0 C653 98.34 653 196.68 653 298 C437.51 298 222.02 298 0 298 C0 199.66 0 101.32 0 0 Z " fill="#212529" transform="translate(0,0)"/>
<path d="M0 0 C1.6874269 0.00015917 3.37485866 0.00585622 5.06225586 0.01586914 C6.39189613 0.01799156 6.39189613 0.01799156 7.74839783 0.02015686 C10.59133215 0.02577324 13.43418892 0.03832848 16.27709961 0.05102539 C18.19962452 0.05603828 20.12215065 0.06060155 22.04467773 0.06469727 C26.7680151 0.07574798 31.49129419 0.09302356 36.21459961 0.11352539 C40.17459444 8.49704537 43.82630074 16.92087658 47.21459961 25.55102539 C48.26219576 28.19812781 49.31407516 30.84351595 50.36694336 33.48852539 C50.80259865 34.5834153 50.80259865 34.5834153 51.24705505 35.70042419 C55.69075894 46.84406184 60.24387628 57.9436002 64.77709961 69.05102539 C71.68272454 85.98007084 78.57992758 102.91242537 85.43722534 119.8611145 C86.23229677 121.82603481 87.02779193 123.79078372 87.82376099 125.75534058 C92.71834091 137.83777983 97.5244453 149.95021194 102.21459961 162.11352539 C102.38173965 161.24468216 102.5488797 160.37583893 102.72108459 159.48066711 C107.87542783 132.68965875 113.03924177 105.90048251 118.21459961 79.11352539 C118.39923264 78.15787186 118.58386566 77.20221832 118.77409363 76.21760559 C121.06478394 64.36244423 123.35992214 52.50815581 125.66159058 40.65512085 C126.32252913 37.25093805 126.98206284 33.8464876 127.64041138 30.44180298 C128.41336084 26.44483984 129.18911446 22.44843154 129.96712112 18.4524498 C130.25177912 16.9879082 130.53543696 15.52317181 130.81803513 14.05823135 C131.20197431 12.06889203 131.58988611 10.08032061 131.97802734 8.09179688 C132.19402084 6.97868637 132.41001434 5.86557587 132.6325531 4.71873474 C133.21459961 2.11352539 133.21459961 2.11352539 134.21459961 0.11352539 C152.69459961 0.11352539 171.17459961 0.11352539 190.21459961 0.11352539 C196.75658503 21.03585058 203.09309277 42.00849264 209.31652069 63.02710724 C211.24761486 69.54649127 213.18335089 76.06450014 215.11817169 82.58277893 C215.83004372 84.98120944 216.54170911 87.3797012 217.25335693 89.77819824 C221.01032958 102.43818046 224.78912807 115.09152824 228.58959961 127.73852539 C228.83843903 128.56671783 229.08727844 129.39491028 229.34365845 130.24819946 C230.63256877 134.53706477 231.92309079 138.82544175 233.21459961 143.11352539 C237.10335224 131.76117395 240.59051084 120.31793524 243.96850586 108.80493164 C244.51527864 106.94913707 245.06231772 105.09342094 245.60960388 103.23777771 C247.04569873 98.36639959 248.4788092 93.49414913 249.91107178 88.62164307 C252.16827604 80.94422149 254.42948852 73.26797904 256.69135666 65.59193039 C257.24991751 63.69635491 257.80837185 61.80074805 258.36671829 59.90510941 C264.24469669 39.95294977 270.22236091 20.03170867 276.21459961 0.11352539 C294.69459961 0.11352539 313.17459961 0.11352539 332.21459961 0.11352539 C333.73680427 4.68013937 334.83809316 8.79185878 335.74588013 13.47872925 C335.88642976 14.19847746 336.02697939 14.91822567 336.1717881 15.65978444 C336.63925901 18.05884189 337.10099486 20.45896613 337.56274414 22.85913086 C337.89766479 24.58419898 338.23293995 26.30919831 338.56854248 28.03413391 C339.47695519 32.70855673 340.38041097 37.38392537 341.28297663 42.05948019 C342.22767294 46.94875069 343.17692963 51.83713558 344.1257019 56.72561646 C345.92090755 65.97898627 347.71201338 75.23314468 349.50164592 84.48759377 C351.53959042 95.02502862 353.5821064 105.56157569 355.62500596 116.09805083 C359.82662292 137.76889202 364.02250065 159.44084113 368.21459961 181.11352539 C379.20737681 134.08455647 390.17592659 87.05040893 401.02709961 39.98852539 C401.37680628 38.4718458 401.37680628 38.4718458 401.73357773 36.92452621 C404.56251126 24.65463566 407.38886247 12.38415293 410.21459961 0.11352539 C425.72459961 0.11352539 441.23459961 0.11352539 457.21459961 0.11352539 C456.60648545 6.19466698 456.0787473 11.41056088 454.734375 17.22497559 C454.58721826 17.86914287 454.44006151 18.51331016 454.28844547 19.17699766 C453.80223379 21.29851153 453.30730125 23.41788514 452.81225586 25.53735352 C452.45853044 27.07238885 452.10534508 28.60754871 451.75265503 30.14282227 C450.79964743 34.28404852 449.83896404 38.4234586 448.87668991 42.56254005 C447.86935453 46.90079739 446.86870165 51.24059605 445.8671875 55.5802002 C444.18672909 62.8572579 442.50155578 70.13321048 440.81323242 77.40844727 C438.86017762 85.82458247 436.91323554 94.24211262 434.96983051 102.66048098 C432.89946307 111.6287035 430.82519792 120.59602084 428.74949265 129.56300926 C428.1514435 132.14761093 427.55406832 134.73236765 426.95681763 137.31715393 C426.02029116 141.36921467 425.08112007 145.4206536 424.13986588 149.47161865 C423.79431207 150.96058472 423.44962804 152.44975294 423.10586166 153.93913269 C422.6378807 155.96596101 422.16677581 157.99203751 421.69482422 160.01794434 C421.29994057 161.72129314 421.29994057 161.72129314 420.89707947 163.45905304 C420.21459961 166.11352539 420.21459961 166.11352539 419.21459961 168.11352539 C443.96459961 168.11352539 468.71459961 168.11352539 494.21459961 168.11352539 C492.43869247 182.32078247 488.49394381 196.17631255 485.21459961 210.11352539 C431.09459961 210.11352539 376.97459961 210.11352539 321.21459961 210.11352539 C316.56192716 183.3606588 311.91154628 156.61146405 307.42480469 129.83105469 C305.02500844 115.52015709 302.54788029 101.2310994 299.83540344 86.97566223 C298.77569243 81.363643 297.84385837 75.79056173 297.21459961 70.11352539 C296.88459961 70.11352539 296.55459961 70.11352539 296.21459961 70.11352539 C296.00706055 71.00168945 295.79952148 71.88985352 295.58569336 72.80493164 C293.60378778 81.02279117 291.34828641 89.10305073 288.83959961 97.17602539 C286.43591193 104.92444361 284.21944959 112.68993854 282.21459961 120.55102539 C278.58622684 134.75210006 274.41581552 148.78350287 270.20288086 162.82055664 C269.51870567 165.10553888 268.83511286 167.39069557 268.15209961 169.67602539 C267.81758789 170.79468994 267.48307617 171.91335449 267.13842773 173.06591797 C264.59562493 181.6466334 262.27678158 190.27268992 260.11669922 198.95751953 C259.89377197 199.8430249 259.67084473 200.72853027 259.44116211 201.64086914 C259.25118652 202.41164795 259.06121094 203.18242676 258.86547852 203.9765625 C258.21459961 206.11352539 258.21459961 206.11352539 256.21459961 210.11352539 C241.03459961 210.11352539 225.85459961 210.11352539 210.21459961 210.11352539 C206.84706701 201.13343846 206.84706701 201.13343846 205.85522461 197.10961914 C205.63036377 196.21645996 205.40550293 195.32330078 205.17382812 194.40307617 C204.93978271 193.46189941 204.7057373 192.52072266 204.46459961 191.55102539 C202.42750359 183.54791858 200.22277271 175.62631657 197.77709961 167.73852539 C194.31785477 156.57507678 191.16442535 145.33851365 188.04223633 134.0769043 C186.79255092 129.602367 185.5025054 125.13967755 184.21459961 120.67602539 C181.91172357 112.67982053 179.73584337 104.65307782 177.58959961 96.61352539 C175.05269823 82.46572969 175.05269823 82.46572969 169.21459961 70.11352539 C168.33802649 75.34242968 167.46338975 80.57165551 166.58959961 85.80102539 C166.45455017 86.60871368 166.31950073 87.41640198 166.18035889 88.24856567 C164.68201931 97.21516063 163.19461293 106.18312862 161.76147461 115.16040039 C158.71037608 134.25219786 155.45802315 153.29830417 152.01782227 172.32421875 C151.69376015 174.12111535 151.37002397 175.91807077 151.04663086 177.71508789 C150.89081543 178.58071854 150.735 179.44634918 150.57446289 180.33821106 C149.33861966 187.2707229 148.2216362 194.21898906 147.17500305 201.18252563 C146.70439852 204.2688158 146.20408997 207.14505432 145.21459961 210.11352539 C120.46459961 210.11352539 95.71459961 210.11352539 70.21459961 210.11352539 C67.24459961 201.53352539 64.27459961 192.95352539 61.21459961 184.11352539 C59.11575381 178.2808577 59.11575381 178.2808577 56.99194336 172.45727539 C56.21459961 170.11352539 56.21459961 170.11352539 56.21459961 168.11352539 C29.81459961 168.11352539 3.41459961 168.11352539 -23.78540039 168.11352539 C-24.77540039 171.41352539 -25.76540039 174.71352539 -26.78540039 178.11352539 C-27.65399596 180.69436342 -28.54110725 183.26906785 -29.44946289 185.83618164 C-29.68700287 186.50773788 -29.92454285 187.17929413 -30.16928101 187.87120056 C-30.66381305 189.26710049 -31.15955334 190.66257296 -31.65649414 192.05761719 C-32.41958036 194.20182028 -33.17689434 196.34800653 -33.93383789 198.49438477 C-34.41787139 199.85843829 -34.90223391 201.22237511 -35.38696289 202.58618164 C-35.82347168 203.81602783 -36.25998047 205.04587402 -36.7097168 206.31298828 C-37.78540039 209.11352539 -37.78540039 209.11352539 -38.78540039 210.11352539 C-40.35087087 210.20679255 -41.92052812 210.23098121 -43.48876953 210.22705078 C-44.4897316 210.22697525 -45.49069366 210.22689972 -46.52198792 210.2268219 C-47.61051559 210.22166061 -48.69904327 210.21649933 -49.82055664 210.21118164 C-50.92894394 210.20976669 -52.03733124 210.20835175 -53.17930603 210.20689392 C-56.73553108 210.20127572 -60.29169422 210.18872014 -63.84790039 210.17602539 C-66.25219636 210.17101274 -68.65649331 210.16644942 -71.06079102 210.16235352 C-76.96901543 210.15130038 -82.87720349 210.13454456 -88.78540039 210.11352539 C-87.12417789 204.34062536 -85.35097752 198.72432192 -83.02758789 193.17602539 C-82.63810471 192.23886688 -82.63810471 192.23886688 -82.24075317 191.28277588 C-81.67957483 189.93354713 -81.11627573 188.58519879 -80.55102539 187.2376709 C-78.96980468 183.46645084 -77.40627574 179.68788224 -75.84008789 175.91040039 C-75.50837585 175.11148376 -75.17666382 174.31256714 -74.8348999 173.48944092 C-71.09456006 164.47057879 -67.4395968 155.41754658 -63.78540039 146.36352539 C-57.14972756 129.93417168 -50.47587064 113.52063659 -43.78540039 97.11352539 C-37.03548108 80.55937781 -30.30041141 63.99942694 -23.59790039 47.42602539 C-22.90522051 45.71385568 -22.21251272 44.00169725 -21.51977539 42.28955078 C-17.76506139 33.00928974 -17.76506139 33.00928974 -14.01342773 23.7277832 C-12.4402749 19.83436964 -10.86308232 15.94260582 -9.28540039 12.05102539 C-8.83398682 10.93187744 -8.38257324 9.81272949 -7.91748047 8.65966797 C-7.51295654 7.66346436 -7.10843262 6.66726074 -6.69165039 5.64086914 C-6.34424805 4.78227295 -5.9968457 3.92367676 -5.63891602 3.0390625 C-4.14165326 -0.33877255 -4.12750865 0.12378533 0 0 Z " fill="#EADDCA" transform="translate(129.785400390625,20.886474609375)"/>
<path d="M0 0 C2.3379385 2.10446947 3.5098728 3.77870272 4.5078125 6.75390625 C4.89743164 7.89182617 4.89743164 7.89182617 5.29492188 9.05273438 C5.56884766 9.88095703 5.84277344 10.70917969 6.125 11.5625 C6.74210396 13.37633051 7.3592959 15.19013108 7.9765625 17.00390625 C8.30301758 17.97344238 8.62947266 18.94297852 8.96582031 19.94189453 C10.77959032 25.30527581 12.64407248 30.65109541 14.5 36 C15.26047118 38.200502 16.02088826 40.40102269 16.78125 42.6015625 C18.20837568 46.72506064 19.64509955 50.84495252 21.09375 54.9609375 C21.41666016 55.87875 21.73957031 56.7965625 22.07226562 57.7421875 C22.67352025 59.44848483 23.2762904 61.15424919 23.88085938 62.859375 C24.14705078 63.61476562 24.41324219 64.37015625 24.6875 65.1484375 C25.03361328 66.12562744 25.03361328 66.12562744 25.38671875 67.12255859 C26.01755676 69.05374661 26.50726193 71.0290477 27 73 C9.84 73 -7.32 73 -25 73 C-23.87500411 66.25002468 -23.87500411 66.25002468 -22.65234375 62.86010742 C-22.38087021 62.09958572 -22.10939667 61.33906403 -21.82969666 60.55549622 C-21.53527176 59.74698715 -21.24084686 58.93847809 -20.9375 58.10546875 C-20.6299025 57.24817673 -20.32230499 56.3908847 -20.00538635 55.50761414 C-19.00838643 52.73248989 -18.0042783 49.95999762 -17 47.1875 C-16.31586435 45.28743789 -15.63219054 43.38720942 -14.94897461 41.48681641 C-13.27490258 36.83346873 -11.59537685 32.18211223 -9.91424561 27.53131104 C-8.60689652 23.91159753 -7.30489305 20.2899729 -6.00390625 16.66796875 C-4.00701322 11.11038303 -2.00603986 5.55429053 0 0 Z " fill="#23272A" transform="translate(145,78)"/>
<path d="M0 0 C11.06077348 -0.60773481 11.06077348 -0.60773481 15.1875 2.0625 C17.35837615 5.58081652 18 7.86487942 18 12 C16.7926593 14.85949114 15.86185958 16.44526187 13.24609375 18.12890625 C9.0006788 19.77538892 4.49332582 19.10698395 0 19 C0 12.73 0 6.46 0 0 Z " fill="#E2D6C4" transform="translate(326,265)"/>
<path d="M0 0 C1.65 0 3.3 0 5 0 C6.65 3.3 8.3 6.6 10 10 C12.48724903 6.68366796 14.23109915 3.70626844 16 0 C17.65 0 19.3 0 21 0 C21 6.27 21 12.54 21 19 C19.68 19 18.36 19 17 19 C16.505 14.05 16.505 14.05 16 9 C14.68 11.64 13.36 14.28 12 17 C10.68 16.67 9.36 16.34 8 16 C6.25 12.9375 6.25 12.9375 5 10 C4.67 12.97 4.34 15.94 4 19 C2.68 19 1.36 19 0 19 C0 12.73 0 6.46 0 0 Z " fill="#D2C7B7" transform="translate(249,265)"/>
<path d="M0 0 C5 1 5 1 6.21020508 2.55053711 C6.47728271 3.2028833 6.74436035 3.85522949 7.01953125 4.52734375 C7.4690918 5.59178711 7.4690918 5.59178711 7.92773438 6.67773438 C8.36569336 7.79631836 8.36569336 7.79631836 8.8125 8.9375 C9.12380859 9.67935547 9.43511719 10.42121094 9.75585938 11.18554688 C12 16.62573832 12 16.62573832 12 19 C10.68 19 9.36 19 8 19 C7.67 18.01 7.34 17.02 7 16 C3.7 15.67 0.4 15.34 -3 15 C-3.33 16.32 -3.66 17.64 -4 19 C-5.32 18.67 -6.64 18.34 -8 18 C-5.36 12.06 -2.72 6.12 0 0 Z " fill="#DBCFBE" transform="translate(394,265)"/>
<path d="M0 0 C4.62 0 9.24 0 14 0 C14 0.99 14 1.98 14 3 C10.7 3 7.4 3 4 3 C4 4.65 4 6.3 4 8 C6.97 8 9.94 8 13 8 C13 8.99 13 9.98 13 11 C10.03 11 7.06 11 4 11 C4 12.65 4 14.3 4 16 C7.3 16 10.6 16 14 16 C14 16.99 14 17.98 14 19 C9.38 19 4.76 19 0 19 C0 12.73 0 6.46 0 0 Z " fill="#E1D5C3" transform="translate(291,265)"/>
<path d="M0 0 C6.23287671 -0.47945205 6.23287671 -0.47945205 9.5 1.5625 C11 4 11 4 10.9375 7.625 C10 11 10 11 7 13 C4.66800612 13.07905064 2.33167378 13.08798769 0 13 C0 8.71 0 4.42 0 0 Z " fill="#2A2E31" transform="translate(329,268)"/>
<path d="M0 0 C0.99 0 1.98 0 3 0 C3 6.27 3 12.54 3 19 C2.01 19 1.02 19 0 19 C0 12.73 0 6.46 0 0 Z " fill="#ECDFCC" transform="translate(364,265)"/>
<path d="M0 0 C3 3.625 3 3.625 3 7 C1.02 7 -0.96 7 -3 7 C-1.125 1.125 -1.125 1.125 0 0 Z " fill="#2C2F32" transform="translate(396,270)"/>
</svg>
